<svg width="24" height="24" viewBox="0 0 24 24" fill="none" xmlns="http://www.w3.org/2000/svg">
<path d="M12.839 0.0708885C12.2203 0.295889 11.6531 0.970888 11.189 2.03964C11.0906 2.26933 10.7859 3.11308 10.514 3.91464C9.97964 5.50839 9.79683 5.93964 9.53902 6.20214C9.32339 6.42714 9.10308 6.4412 8.96245 6.24433C8.73745 5.93026 8.59214 5.38651 8.52652 4.6037C8.47964 4.01776 8.41402 3.84901 8.17495 3.69901C7.98277 3.58183 7.57027 3.57714 7.40152 3.69433C7.26089 3.78339 6.81558 4.3037 6.44058 4.80995C4.71089 7.14901 3.5062 9.93339 3.02339 12.7037C2.85464 13.6787 2.80777 15.3006 2.92495 16.1256C3.51089 20.185 6.6562 23.3396 10.6921 23.9303C11.3484 24.024 12.6562 24.024 13.3078 23.9256C16.2515 23.4943 18.764 21.7037 20.1281 19.074C20.6296 18.1037 20.9156 17.2225 21.075 16.1256C21.1921 15.2959 21.15 13.9459 20.9812 13.2053C20.6437 11.7428 20.0062 10.374 18.8718 8.69589C18.6656 8.38651 17.8921 7.33183 17.1562 6.35214C15.6703 4.3787 15.2296 3.73651 14.8171 2.94901C14.3765 2.10526 14.2031 1.55214 14.1328 0.774014C14.0812 0.202139 13.8703 0.000574112 13.3265 0.00526237C13.1531 0.00526237 12.9328 0.0333881 12.839 0.0708885ZM13.0265 2.52714C13.2937 3.30995 13.8468 4.30839 14.5921 5.36776C14.775 5.62558 15.3796 6.43651 15.9375 7.17245C16.4953 7.90839 17.1234 8.75214 17.3296 9.04745C18.5296 10.749 19.2 12.0662 19.5281 13.3693C19.7062 14.0725 19.739 15.3006 19.5984 16.1115C19.4109 17.2318 18.914 18.4178 18.2437 19.36C17.8406 19.9271 17.0671 20.7006 16.5 21.1037C15.914 21.5209 15.0093 21.9803 14.3484 22.1912C12.8296 22.6834 11.1093 22.6787 9.60933 22.1771C6.87652 21.2631 4.88433 18.9428 4.40152 16.1209C4.31245 15.61 4.30308 15.4178 4.32652 14.5318C4.34527 13.7959 4.37808 13.374 4.44839 12.9615C4.83745 10.7959 5.64839 8.78026 6.9562 6.71308C7.27495 6.21151 7.35933 6.11308 7.35933 6.24901C7.35933 6.28183 7.4437 6.48339 7.54683 6.69901C7.76245 7.14433 8.10464 7.51464 8.46089 7.68808C8.79839 7.85682 9.4312 7.87558 9.8062 7.73495C10.3078 7.54745 10.725 7.12558 11.1046 6.41308C11.3484 5.96308 11.5171 5.53183 11.9296 4.31308C12.45 2.77558 12.7781 1.96932 12.8437 2.04901C12.8625 2.06776 12.9421 2.28339 13.0265 2.52714Z" fill="#F1B00A"/>
<path d="M13.0265 2.52714C13.2937 3.30995 13.8468 4.30839 14.5921 5.36776C14.775 5.62558 15.3796 6.43651 15.9375 7.17245C16.4953 7.90839 17.1234 8.75214 17.3296 9.04745C18.5296 10.749 19.2 12.0662 19.5281 13.3693C19.7062 14.0725 19.739 15.3006 19.5984 16.1115C19.4109 17.2318 18.914 18.4178 18.2437 19.36C17.8406 19.9271 17.0671 20.7006 16.5 21.1037C15.914 21.5209 15.0093 21.9803 14.3484 22.1912C12.8296 22.6834 11.1093 22.6787 9.60933 22.1771C6.87652 21.2631 4.88433 18.9428 4.40152 16.1209C4.31245 15.61 4.30308 15.4178 4.32652 14.5318C4.34527 13.7959 4.37808 13.374 4.44839 12.9615C4.83745 10.7959 5.64839 8.78026 6.9562 6.71308C7.27495 6.21151 7.35933 6.11308 7.35933 6.24901C7.35933 6.28183 7.4437 6.48339 7.54683 6.69901C7.76245 7.14433 8.10464 7.51464 8.46089 7.68808C8.79839 7.85682 9.4312 7.87558 9.8062 7.73495C10.3078 7.54745 10.725 7.12558 11.1046 6.41308C11.3484 5.96308 11.5171 5.53183 11.9296 4.31308C12.45 2.77558 12.7781 1.96932 12.8437 2.04901C12.8625 2.06776 12.9421 2.28339 13.0265 2.52714Z" fill="#F1B00A"/>
<path d="M10.8796 8.60586C8.31084 9.03711 6.16396 11.2027 5.74209 13.7809C5.65303 14.3527 5.65303 15.3652 5.74209 15.9371C6.16396 18.5387 8.32021 20.6949 10.9218 21.1168C11.4937 21.2059 12.5062 21.2059 13.078 21.1168C15.6796 20.6949 17.8358 18.5387 18.2577 15.9371C18.3468 15.3652 18.3468 14.3527 18.2577 13.7809C17.8358 11.1793 15.6796 9.02305 13.078 8.60117C12.5296 8.51211 11.4187 8.5168 10.8796 8.60586ZM12.539 10.0027C13.4765 10.0777 14.5312 10.5559 15.314 11.2684C15.9421 11.8402 16.5093 12.7871 16.7437 13.6402C16.8374 13.9824 16.8515 14.1512 16.8515 14.859C16.8515 15.8152 16.7765 16.1762 16.4249 16.9168C15.928 17.9668 15.1312 18.7684 14.0858 19.2699C11.9343 20.2965 9.39834 19.6215 7.99209 17.648C7.71084 17.259 7.39209 16.5699 7.25615 16.0777C7.1624 15.7309 7.14834 15.5715 7.14834 14.859C7.14834 13.9074 7.22334 13.5465 7.56553 12.8152C7.84209 12.234 8.10459 11.859 8.5499 11.409C9.37959 10.584 10.4437 10.0824 11.5687 9.98867C11.7937 9.96992 12.028 9.96055 12.0937 9.96523C12.1593 9.97461 12.3608 9.98867 12.539 10.0027Z" fill="white"/>
<path d="M11.6063 11.4328C11.5359 11.4797 11.4328 11.5828 11.3859 11.6531C11.3016 11.7797 11.2969 11.9016 11.2969 13.4531C11.2969 15.0047 11.3016 15.1266 11.3859 15.2531C11.4328 15.3234 11.5359 15.4266 11.6063 15.4734C11.7328 15.5578 11.8547 15.5625 13.4062 15.5625C14.9578 15.5625 15.0797 15.5578 15.2063 15.4734C15.4219 15.3281 15.5156 15.15 15.5156 14.8594C15.5156 14.5687 15.4219 14.3906 15.2063 14.2453C15.0797 14.1656 14.9672 14.1562 13.8891 14.1562H12.7031V12.9703C12.7031 11.8922 12.6938 11.7797 12.6141 11.6531C12.4688 11.4375 12.2906 11.3438 12 11.3438C11.8266 11.3438 11.7 11.3719 11.6063 11.4328Z" fill="white"/>
</svg>
