<svg width="220" height="220" viewBox="0 0 220 220" fill="none" xmlns="http://www.w3.org/2000/svg">
<mask id="mask0_795_56441" style="mask-type:luminance" maskUnits="userSpaceOnUse" x="50" y="142" width="123" height="78">
<path d="M61.6658 158.04L50.7539 202.57C70.4489 215.191 94.3085 221.689 119.446 219.621C139.183 217.999 157.28 211.292 172.543 200.905L93.8694 145.959C90.9147 143.895 87.6769 142.719 84.4193 142.33C74.4377 141.136 64.2888 147.335 61.6658 158.04Z" fill="white"/>
</mask>
<g mask="url(#mask0_795_56441)">
<path d="M83.3788 97.3242L21.9844 200.209L143.966 272.508L205.361 169.623L83.3788 97.3242Z" fill="white"/>
</g>
<mask id="mask1_795_56441" style="mask-type:luminance" maskUnits="userSpaceOnUse" x="82" y="61" width="135" height="115">
<path d="M82.7005 78.4779C80.8591 87.0084 84.311 95.8695 91.3931 100.797L198.994 175.652C207.361 164.206 213.544 151.13 216.993 137.068L114.382 65.6845C111.469 63.658 108.304 62.5048 105.132 62.1252C95.1383 60.9302 85.0872 67.4205 82.7005 78.4779Z" fill="white"/>
</mask>
<g mask="url(#mask1_795_56441)">
<path d="M111.397 12.0957L37.5898 140.862L184.922 224.743L258.73 95.9764L111.397 12.0957Z" fill="white"/>
</g>
<mask id="mask2_795_56441" style="mask-type:luminance" maskUnits="userSpaceOnUse" x="92" y="0" width="128" height="98">
<path d="M101.301 0.378873C98.3096 0.625164 95.3555 0.987427 92.4434 1.46208L220.001 97.2592C215.27 56.6206 188.689 23.4513 153.019 8.52681C149.487 7.1728 145.911 5.89113 142.312 4.68358C136.275 2.8627 130.036 1.54756 123.643 0.782384C116.362 -0.0897982 108.895 -0.245225 101.301 0.378873Z" fill="white"/>
</mask>
<g mask="url(#mask2_795_56441)">
<path d="M125.54 -53.4238L51.8047 60.9629L187.421 147.795L261.157 33.4088L125.54 -53.4238Z" fill="white"/>
</g>
<mask id="mask3_795_56441" style="mask-type:luminance" maskUnits="userSpaceOnUse" x="0" y="7" width="72" height="171">
<path d="M0.379752 119.048C2.21699 141.246 10.5515 161.361 23.36 177.686L71.5002 7.0293C26.488 23.8799 -3.76979 68.9226 0.379752 119.048Z" fill="white"/>
</mask>
<g mask="url(#mask3_795_56441)">
<path d="M20.5306 -25.6074L-80.8242 131.625L34.6773 205.578L136.032 48.3457L20.5306 -25.6074Z" fill="white"/>
</g>
</svg>
