<svg width="29" height="28" viewBox="0 0 29 28" fill="none" xmlns="http://www.w3.org/2000/svg">
<path d="M14.952 23.8234H7.57866C3.89199 23.8234 2.66699 21.3734 2.66699 18.9118V9.08842C2.66699 5.40176 3.89199 4.17676 7.57866 4.17676H14.952C18.6387 4.17676 19.8637 5.40176 19.8637 9.08842V18.9118C19.8637 22.5984 18.627 23.8234 14.952 23.8234Z" stroke="#CCCCCC" stroke-width="1.75" stroke-linecap="round" stroke-linejoin="round"/>
<path d="M23.1071 19.9499L19.8638 17.6749V10.3132L23.1071 8.03824C24.6938 6.92991 26.0004 7.60658 26.0004 9.55491V18.4449C26.0004 20.3932 24.6938 21.0699 23.1071 19.9499Z" stroke="#CCCCCC" stroke-width="1.75" stroke-linecap="round" stroke-linejoin="round"/>
<path d="M13.75 12.8333C14.7165 12.8333 15.5 12.0498 15.5 11.0833C15.5 10.1168 14.7165 9.33325 13.75 9.33325C12.7835 9.33325 12 10.1168 12 11.0833C12 12.0498 12.7835 12.8333 13.75 12.8333Z" stroke="#CCCCCC" stroke-width="1.75" stroke-linecap="round" stroke-linejoin="round"/>
</svg>
